<svg version="1.2" xmlns="http://www.w3.org/2000/svg" viewBox="0 0 512 512" width="512" height="512">
	<title>3-defeated-svg</title>
	<style>
		.s0 { fill: #ff0000 } 
		.s1 { opacity: .2;fill: #ff0000 } 
		.s2 { fill: #000000 } 
		.s3 { fill: #a10000 } 
	</style>
	<g id="death-skull">
		<path id="Path 0" class="s0" d="m234.7 11.7c-0.1 0.1-8.3 1.6-18.2 3.3-9.9 1.7-21.4 4-25.5 5.1-4.1 1.2-11.8 3.7-17 5.6-5.2 2-14.4 5.9-20.5 8.7-6.1 2.9-15.1 7.6-20 10.5-4.9 2.9-13.3 8.3-18.5 11.9-5.2 3.7-13.3 9.9-18 13.8-4.7 3.9-12.6 11.3-17.5 16.5-5 5.2-11.8 13-15.1 17.4-3.4 4.4-9.1 12.5-12.8 18-3.7 5.5-10.2 17-14.5 25.5-4.3 8.5-9.5 19.8-11.4 25-1.9 5.2-4.6 14.2-6 20-1.4 5.8-3.5 15.7-4.6 22-1.2 6.3-2.5 15.9-3.1 21.3-0.7 6.4-0.7 17.1 0 31.5 0.7 17.8 1.5 24.3 4 36.2 1.6 8 4.4 19 6 24.5 1.7 5.5 4.7 14.1 6.6 19 2 4.9 6.3 14.2 9.6 20.5 3.3 6.3 8.6 15.6 11.7 20.5 3.1 4.9 8.6 12.8 12.1 17.5 3.6 4.7 11.6 13.8 18 20.4 6.3 6.5 16 15.6 21.5 20.1 5.5 4.5 15 11.6 21 15.7 6.1 4.1 18 10.9 26.5 15.1 8.5 4.2 18.7 8.8 22.5 10.2 3.9 1.5 12.2 4 18.5 5.5 6.3 1.6 17.6 4 25 5.5 7.4 1.4 20.9 3 30 3.6 11.8 0.8 20.2 0.8 29.5 0 7.1-0.6 19.1-2.3 26.5-3.7 7.4-1.4 16.9-3.4 21-4.4 4.1-1.1 10-2.6 13-3.4 3-0.9 8.4-2.7 12-4.2 3.6-1.4 13.3-6 21.5-10.1 8.3-4.1 18.4-9.7 22.5-12.5 4.1-2.8 10-6.9 13-9.1 3-2.3 8.2-6.4 11.5-9.1 3.3-2.7 10-8.8 14.8-13.5 4.9-4.7 12.8-13.3 17.6-19.1 4.8-5.8 10.3-12.7 12.3-15.5 1.9-2.7 5.7-8.6 8.3-13 2.7-4.4 7.6-13.6 11-20.5 3.5-6.9 8.1-17.4 10.3-23.5 2.2-6.1 5.2-15.5 6.5-21 1.4-5.5 3.7-16.5 5.1-24.5 1.4-8 2.9-20.8 3.2-28.5 0.4-7.8 0.2-19.6-0.5-26.5-0.6-6.9-2.4-19.7-4-28.5-1.7-8.8-4.3-20.5-5.9-26-1.6-5.5-4.4-13.6-6.2-18-1.7-4.4-6-13.6-9.5-20.5-3.5-6.9-9.6-17.4-13.6-23.5-3.9-6-10.1-14.8-13.7-19.5-3.7-4.7-11.4-13.3-17.2-19.1-5.8-5.8-15.2-14.3-21-18.9-5.8-4.6-14.8-11.1-20-14.6-5.2-3.4-13.8-8.5-19-11.2-5.2-2.8-14.7-7.3-21-10-6.3-2.7-16-6.4-21.5-8.1-5.5-1.7-16.7-4.4-25-6.1-12.7-2.4-19-3-41-3.9-14.3-0.5-27-0.9-28.3-0.8-1.3 0.1-2.4 0.2-2.5 0.4z"/>
		<path id="Path 1" class="s1" d="m505.3 259.5c0 3.9 0.2 5.2 0.4 3 0.2-2.2 0.2-5.4 0-7-0.2-1.7-0.4 0.2-0.4 4z"/>
		<path id="Path 2" class="s2" d="m239.5 31.1c-5.5 0.4-16.3 2-24 3.4-8 1.5-20.5 4.7-29 7.6-8.3 2.8-20.2 7.6-26.5 10.8-6.3 3.2-15.8 8.4-21 11.6-5.2 3.2-11.5 7.1-14 8.9-2.5 1.7-8.5 6.6-13.5 11-5 4.4-13.7 12.9-19.5 19-5.8 6.1-13.3 14.7-16.6 19.1-3.3 4.4-8.8 12.5-12.2 18-3.3 5.5-8.3 14.7-11 20.5-2.8 5.8-6.4 14.6-8.2 19.5-1.7 4.9-4.2 12.8-5.5 17.5-1.3 4.7-3.6 15.2-5.1 23.5-2.3 12.8-2.7 17.9-2.8 34.5 0 13.8 0.4 22.7 1.7 30.5 0.9 6.1 3 16.4 4.6 23 1.6 6.6 4.6 16.7 6.6 22.5 2 5.8 5.7 14.8 8.1 20 2.5 5.2 7.1 13.8 10.2 19 3.1 5.2 9.3 14.3 13.7 20.2 4.4 5.8 12 15 17 20.4 5 5.4 13.5 13.5 19 18.2 5.5 4.6 14.3 11.2 19.5 14.7 5.2 3.5 15.8 9.4 23.5 13.3 7.7 3.8 17.2 8.3 21 10 3.8 1.7 10.6 4.2 15 5.7 4.4 1.4 13.4 3.7 20 5 6.6 1.3 15.6 2.9 20 3.4 4.4 0.5 12.5 1.3 18 1.6 5.5 0.4 16.5 0.2 24.5-0.4 8-0.7 21.3-2.5 29.5-4.2 8.3-1.6 19.5-4.5 25-6.3 5.5-1.9 15.2-5.8 21.5-8.7 6.3-2.9 16.8-8.2 23.4-11.8 6.5-3.6 16.4-10 22-14.2 5.5-4.2 16.6-14.1 24.5-22 7.9-7.9 17.4-18.5 21.1-23.4 3.7-4.9 8.7-12.1 11-16 2.4-3.9 7.4-13.3 11.1-21 3.7-7.7 8.2-17.8 9.9-22.5 1.7-4.7 4.7-14.4 6.5-21.5 1.9-7.3 4.1-19.7 5-28.5 1.4-11.8 1.6-19.8 1.2-33.5-0.3-9.9-1.3-22.3-2.1-27.5-0.8-5.2-2.6-14-4-19.5-1.4-5.5-4.1-14.5-6-20-1.9-5.5-5.3-14.1-7.6-19-2.3-4.9-7.1-13.9-10.7-20-3.7-6.1-8.9-14.2-11.7-18-2.8-3.8-8-10.6-11.6-15-3.7-4.4-11.3-12.3-17.1-17.5-5.7-5.3-13.5-12.1-17.4-15.1-3.9-3.1-11.9-8.7-18-12.4-6.1-3.8-17.3-9.8-25-13.5-7.7-3.7-18.3-8.1-23.5-9.8-5.2-1.8-14.2-4.3-20-5.6-5.8-1.4-16.6-3.2-24-4-7.4-0.8-18.7-1.7-25-2-6.3-0.2-16 0-21.5 0.5z"/>
		<path id="Path 3" class="s0" d="m234 65.6c-1.4 0.2-7.9 1.1-14.5 2-6.6 0.9-16.3 2.5-21.5 3.6-5.2 1.1-12.7 2.9-16.5 4-3.8 1.1-11.1 3.4-16 5-4.9 1.7-12.8 4.8-17.5 6.8-4.7 2.1-11.4 5.3-15 7.1-3.6 1.8-9.9 5.5-14 8.3-4.1 2.7-8 5.5-8.6 6-0.6 0.6-2.2 1.8-3.4 2.6-1.3 0.8-6.2 5.3-11 10-4.8 4.7-10.5 11-12.7 14-2.2 3-5.8 9.3-8 14-2.2 4.7-5.1 12.1-6.3 16.5-2 7-2.2 9.6-1.8 21 0.4 8.5 1.2 15.6 2.6 20.5 1.1 4.1 2.8 9.5 3.7 12 1 2.5 3.1 7.4 4.7 11 1.7 3.6 5.9 12.3 9.3 19.5 3.5 7.1 7.1 15 8 17.5 0.9 2.5 2.9 8.8 4.3 14 2.3 8.3 2.6 11.4 2.6 24.5 0 12.1-0.4 16.4-2 22.5-1.2 4.1-2.6 8.4-3.2 9.5-0.5 1.1-2.2 5.4-3.6 9.5-1.7 5-2.6 9.5-2.6 13.5 0.1 4.8 0.5 6.5 2.3 8.5 1.3 1.4 3.6 3.5 5.3 4.6 1.6 1.2 6.1 3.7 9.9 5.7 3.8 1.9 10.2 4.7 14 6.2 3.8 1.4 8.6 3.2 10.5 3.9 1.9 0.7 5.7 2.1 8.5 3 2.7 1 8.5 2.9 12.8 4.4l7.8 2.7-0.1 47.5h192c0-37.2 0.1-48 0.2-48 0.2 0 4.1-1.3 8.8-2.9 4.7-1.7 13-4.6 18.5-6.6 5.5-1.9 15.4-6.2 22-9.5 6.6-3.3 13-6.6 14.1-7.3 1.2-0.6 3.3-2.4 4.8-3.9 2.1-2.2 2.6-3.8 2.6-7.5 0-2.7-1.4-8.5-3.1-13.3-1.7-4.7-4.2-12.3-5.5-17-1.7-5.8-2.7-12.1-3.1-20-0.5-10.1-0.3-12.4 1.6-18.5 1.2-3.9 3-9 4.1-11.5 1-2.5 4.6-11 8-19 3.4-8 7.1-16.7 8.2-19.5 1.1-2.7 2.8-7 3.8-9.5 1-2.5 2.7-7.4 3.8-11 1.1-3.6 2.8-10.1 3.9-14.5 1.3-5.8 1.8-11.8 1.7-22 0-10.9-0.5-15.6-2.1-21.5-1.1-4.1-3.7-10.9-5.8-15-2-4.1-5.1-9.5-6.8-12-1.7-2.5-4.3-5.8-5.7-7.5-1.4-1.6-4.5-5-7-7.5-2.5-2.5-8.6-7.8-13.5-11.8-4.9-4-10.5-7.9-12.3-8.7-1.7-0.8-3.4-1.8-3.6-2.2-0.2-0.5-5.9-3.6-12.7-7-6.8-3.3-15.3-7.2-18.9-8.6-3.6-1.3-9.2-3.4-12.5-4.5-3.3-1.1-9.1-2.9-13-4-3.9-1.1-10.4-2.7-14.5-3.6-4.1-0.9-13.4-2.6-20.5-3.7-10-1.6-18.9-2.2-38-2.4-13.8-0.2-26.1-0.1-27.5 0.1z"/>
		<path id="Path 4" class="s3" d="m209.5 447.7c26.4 0.2 69.8 0.2 96.5 0 26.7-0.1 5.1-0.2-48-0.2-53.1 0-74.9 0.1-48.5 0.2z"/>
		<path id="Path 5" class="s2" d="m183 208.7c-1.4 0.2-5.4 1.1-9 2-3.6 0.9-8.1 2.6-10.1 3.7-1.9 1.2-5.8 3.9-8.6 6.1-2.8 2.2-5.9 5.4-6.9 7-1 1.7-2.7 4.6-3.9 6.5-1.1 1.9-2.9 6.2-3.9 9.5-1 3.3-1.8 8.7-1.8 12 0 3.3 0.8 8.9 1.8 12.5 1 3.6 2.7 8.1 3.9 10 1.1 1.9 2.9 4.9 3.9 6.5 1 1.6 4.1 4.8 6.9 7 2.8 2.2 6.7 4.9 8.6 6 2 1.2 6.5 2.9 10.1 3.9 3.6 1 9.2 1.8 12.5 1.8 3.3 0 9-1 12.8-2.1 3.7-1.2 8.6-3.3 10.9-4.7 2.4-1.5 6.6-4.9 9.3-7.8 2.8-2.8 6.3-7.3 7.8-10.1 1.6-2.7 3.5-7.7 4.3-11 0.9-3.3 1.6-8.5 1.6-11.5 0-3-0.7-8.2-1.6-11.5-0.8-3.3-2.7-8.2-4.3-11-1.5-2.7-5-7.3-7.8-10.1-2.7-2.9-6.9-6.3-9.3-7.8-2.3-1.4-7-3.5-10.5-4.5-3.4-1-8-2.1-10.2-2.3-2.2-0.2-5.1-0.3-6.5-0.1zm143 0.1c-1.9 0.2-6.3 1.2-9.8 2.3-3.4 1-8.6 3.4-11.5 5.3-2.8 1.8-6.3 4.4-7.7 5.7-1.4 1.3-3.4 3.7-4.5 5.3-1.1 1.6-3.1 4.8-4.3 7-1.3 2.3-3.1 6.6-3.9 9.6-0.8 3-1.5 8.4-1.5 12 0 3.6 0.7 9 1.5 12 0.9 3 2.6 7.3 3.9 9.6 1.2 2.2 3.2 5.4 4.3 7 1.1 1.6 3.6 4.4 5.5 6.2 1.9 1.8 5.5 4.4 8 5.8 2.5 1.4 7.4 3.5 11 4.6 3.6 1.1 9.2 2 12.5 2 3.3 0 8.9-0.8 12.5-1.8 3.6-1 8.5-3 11-4.3 2.5-1.4 7-5.1 10.1-8.1 3-3 6.6-7.5 8-10 1.4-2.5 3.3-7.2 4.2-10.5 0.9-3.3 1.7-8.9 1.7-12.5 0-3.6-0.8-9.2-1.7-12.5-0.9-3.3-2.8-8-4.2-10.5-1.4-2.5-5.1-7-8.1-10-3-3-7.5-6.7-10-8.1-2.5-1.4-7.4-3.3-11-4.2-3.6-0.9-7.9-1.8-9.5-2-1.6-0.1-4.6-0.1-6.5 0.1zm-75.3 88.5c-2.4 2.3-6.1 6.9-8.3 10.2-2.1 3.3-4.5 7.1-5.3 8.5-0.7 1.4-3.4 6.6-5.9 11.5-2.4 5-5.6 12.4-6.9 16.5-2.2 6.8-2.4 8.4-1.7 17.5 0.6 7.2 1.3 10.6 2.5 12 1.7 1.9 3 2 32.8 2 28.5 0 31.2-0.1 32.8-1.8 1.4-1.3 2-4.1 2.5-11.5 0.5-8.6 0.3-10.6-1.8-17.7-1.4-4.4-4.7-12.5-7.3-18-2.7-5.5-6.1-11.7-7.5-13.7-1.4-2.1-2.6-4-2.6-4.3 0-0.3-1.5-2.4-3.2-4.7-1.8-2.4-4-5.1-4.8-6.1-0.8-1-2.7-2.5-4.2-3.3-1.6-0.8-3.7-1.4-4.8-1.4-1 0-3.9 1.9-6.3 4.3z"/>
	</g>
</svg>