<svg height="512" width="512" xmlns="http://www.w3.org/2000/svg" viewBox="-19.859 -19.859 238.304 238.304" xml:space="preserve"><path fill="#fff" d="M124.425 58.892a65.534 65.534 0 0 1 65.534 65.533 65.534 65.534 0 0 1-65.534 65.534 65.534 65.534 0 0 1-65.533-65.534 65.534 65.534 0 0 1 65.533-65.533"/><g stroke-linecap="round" stroke-linejoin="round" stroke="#CCC" stroke-width="1.862"/><path d="M99.292.001C44.542.001 0 44.542 0 99.292s44.542 99.291 99.292 99.291 99.292-44.542 99.292-99.291C198.582 44.542 154.041.001 99.292.001m56.96 109.758a5.126 5.126 0 0 1-5.12 5.12H46.812a5.126 5.126 0 0 1-5.12-5.12v-20.48a5.126 5.126 0 0 1 5.12-5.12h104.32a5.126 5.126 0 0 1 5.12 5.12z"/></svg>