<!DOCTYPE svg PUBLIC "-//W3C//DTD SVG 1.1//EN" "http://www.w3.org/Graphics/SVG/1.1/DTD/svg11.dtd">
<!-- Uploaded to: SVG Repo, www.svgrepo.com, Transformed by: SVG Repo Mixer Tools -->
<svg fill="#000000" height="800px" width="800px" version="1.1" id="Capa_1" xmlns="http://www.w3.org/2000/svg" xmlns:xlink="http://www.w3.org/1999/xlink" viewBox="-31.03 -31.03 372.35 372.35" xml:space="preserve">
<g id="SVGRepo_bgCarrier" stroke-width="0" transform="translate(69.814125,69.814125), scale(0.55)">
<rect x="-31.03" y="-31.03" width="372.35" height="372.35" rx="186.175" fill="#ffffff" strokewidth="0"/>
</g>
<g id="SVGRepo_tracerCarrier" stroke-linecap="round" stroke-linejoin="round" stroke="#CCCCCC" stroke-width="1.86171"/>
<g id="SVGRepo_iconCarrier"> <path d="M155.143,0.001C69.597,0.001,0,69.597,0,155.143c0,85.545,69.597,155.142,155.143,155.142s155.143-69.597,155.143-155.142 C310.285,69.597,240.689,0.001,155.143,0.001z M244.143,171.498c0,4.411-3.589,8-8,8h-163c-4.411,0-8-3.589-8-8v-32 c0-4.411,3.589-8,8-8h163c4.411,0,8,3.589,8,8V171.498z"/> </g>
</svg>