<svg version="1.2" xmlns="http://www.w3.org/2000/svg" viewBox="0 0 512 512" width="512" height="512">
	<title>m-blind-svg</title>
	<style>
		.s0 { fill: #cd59f7 } 
		.s1 { fill: #020103 } 
		.s2 { fill: #cb58f4 } 
		.s3 { fill: #9741b6 } 
		.s4 { fill: #622b75 } 
	</style>
	<g id="img1">
		<path id="Path 0" class="s0" d="m236 11.3c-0.3 0.3-6.1 1.3-13 2.2-6.9 0.9-18.1 2.9-25 4.5-6.9 1.5-17 4.4-22.5 6.5-5.5 2-17.2 7.2-26 11.5-8.8 4.3-20.7 10.8-26.5 14.5-5.8 3.7-15.7 10.9-22 16-6.3 5.2-14.7 12.4-18.5 16.2-3.9 3.7-10.4 11-14.5 16.1-4.1 5.1-9.9 12.7-12.8 17-2.9 4.2-7.9 12-10.9 17.2-3.1 5.2-7.9 14.2-10.6 20-2.7 5.8-5.9 13-7.1 16-1.3 3-3.5 9.6-4.9 14.5-1.4 4.9-3.7 14.6-5.1 21.5-1.4 6.9-3.3 17.4-4.2 23.5-1.4 8.9-1.6 15.3-1.2 33.5 0.4 16.9 1.1 25.6 2.8 35 1.2 6.9 3.8 18.1 5.6 25 1.9 6.9 5.5 17.7 8 24 2.5 6.3 7.5 17.1 11.1 24 3.5 6.9 9.9 17.7 14.1 24 4.2 6.3 9.9 14.2 12.6 17.5 2.8 3.3 9.5 10.7 15.1 16.4 5.5 5.6 13.6 13.3 18 17.1 4.4 3.7 13 10.3 19 14.6 7.2 5.2 17.3 11.1 29.5 17.1 10.2 5 21.9 10.3 26 11.7 4.1 1.5 12.4 4 18.5 5.6 6.1 1.6 19.1 4.4 29 6.1 15.9 2.7 20.2 3.1 37.5 3.1 17.3-0.1 21.6-0.4 37.5-3.2 9.9-1.7 22.9-4.4 29-6 6.1-1.6 14.4-4.1 18.5-5.6 4.1-1.4 15.8-6.7 26-11.7 12.2-6 22.3-11.9 29.5-17.1 6.1-4.3 14.6-10.9 19-14.6 4.4-3.8 12.5-11.5 18.1-17.1 5.5-5.7 12.9-14 16.3-18.4 3.5-4.4 8.5-11.1 11.1-15 2.6-3.9 7.4-11.9 10.8-18 3.4-6.1 8.6-16.6 11.6-23.5 3-6.9 7-17.9 9-24.5 2-6.6 4.7-18.1 6.1-25.5 1.3-7.4 2.9-16.9 3.6-21 0.7-4.3 1.1-15.5 1.1-26-0.1-15.6-0.6-21.2-3.1-36-1.6-9.6-4.2-22.2-5.6-28-1.5-5.8-4.2-14.6-6-19.5-1.9-4.9-5.2-13.1-7.5-18-2.3-4.9-6.4-13.1-9.2-18-2.8-4.9-8.2-13.5-11.9-19-3.7-5.5-10.1-14-14.1-19-4-5-10-11.7-13.3-15-3.4-3.3-11.9-10.7-19-16.5-7.2-5.8-17.5-13.3-23-16.8-5.5-3.4-15.2-8.9-21.5-12.1-6.3-3.2-16.4-7.9-22.5-10.4-6.1-2.5-14.1-5.4-18-6.5-3.9-1.1-11.3-3-16.5-4.1-5.2-1.1-13.8-2.8-19-3.6-5.6-0.9-19.5-1.8-34-2.2-13.5-0.3-24.7-0.3-25 0z"/>
		<path id="Path 1" class="s1" d="m231.4 30.6c-5.5 0.7-14.8 2.2-20.9 3.4-6.1 1.2-16.9 4.1-24 6.5-7.2 2.3-16.8 6-21.5 8.2-4.7 2.2-14.6 7.4-22 11.8-7.4 4.3-17.6 10.8-22.5 14.5-5 3.7-14.9 12.5-22 19.6-7.2 7.1-15.9 16.5-19.4 20.9-3.5 4.4-9 11.8-12.1 16.5-3.1 4.7-7.9 12.6-10.6 17.5-2.8 4.9-6.8 13.3-9.1 18.5-2.2 5.2-5.7 14.7-7.7 21-2 6.3-4.8 16.9-6.1 23.5-1.3 6.6-3 17.3-3.7 23.7q-1.3 11.7-0.3 12.8c0.7 0.8 2.6-1.1 6.4-6.2 3-4 9.3-12 14-17.8 4.7-5.8 14.2-16.1 21.1-23.1 6.9-6.9 17.7-16.7 24-21.9 6.3-5.1 17.6-13.3 25-18.2 7.4-4.9 19.6-12 27-15.7 7.4-3.8 19.1-9 26-11.6 6.9-2.6 18.3-6.2 25.5-8 7.1-1.8 17.9-4 24-4.9 6-0.8 16.8-2.1 24-2.7 11.2-1 15.2-1 28.5 0.5 8.5 0.9 19.3 2.4 24 3.2 4.7 0.8 13 2.7 18.5 4.1 5.5 1.4 10.3 2.8 10.7 3.2 0.4 0.3-8.7 10-20.2 21.6l-20.9 21c-13.9-3.6-18.9-4-30.6-4-11.2 0-16.6 0.4-21.5 1.8-3.6 0.9-10.3 3.6-15 5.8-4.7 2.3-10.3 5.3-12.5 6.8-2.2 1.6-6.9 5.5-10.4 8.7-3.5 3.2-8.5 8.8-11.1 12.4-2.6 3.6-6 9-7.5 12-1.5 3-3.8 8.7-5.1 12.5-1.3 3.8-2.9 10.6-3.5 15-0.7 4.6-0.9 12.3-0.6 18 0.3 5.5 1.5 13.1 2.6 17l2 7c-58.4 58.6-59.9 59.9-62.1 58.7-1.3-0.7-7.3-5.1-13.3-9.9-6.1-4.8-15.9-13.4-21.9-19.2-6-5.8-14.7-14.9-19.4-20.1-4.7-5.2-12.8-15.3-18.1-22.4l-9.6-12.9c-0.5 6.8-0.2 13.5 0.5 19.3 0.6 5.8 2.2 16 3.6 22.7 1.3 6.8 4.2 17.8 6.4 24.5 2.3 6.8 5.7 16.1 7.7 20.8 2.1 4.7 5.9 12.6 8.7 17.5 2.7 4.9 7.9 13.5 11.7 19 3.7 5.5 8.5 12 10.7 14.5l4 4.5c14.4-13.9 86.7-85.9 169.9-169l151.4-151c-5.9-5.5-12.1-10-17.6-13.7-5.5-3.6-15-9.3-21-12.6-6.1-3.3-15.3-7.8-20.5-10-5.2-2.3-14.7-5.6-21-7.5-6.3-2-16.7-4.4-23-5.6-6.3-1.1-15.6-2.3-20.5-2.7-5-0.4-15.8-0.7-24.1-0.8-8.4 0-19.6 0.4-25 1zm36.3 236.1l-160.8 160.8c4.3 4 8.5 7.4 12.1 10.2 3.6 2.8 10.6 7.7 15.5 10.9 4.9 3.2 16.7 9.5 26 14 9.3 4.5 21.3 9.6 26.5 11.2 5.2 1.7 14.7 4.3 21 5.7 6.3 1.4 16.2 3.1 22 3.9 5.8 0.7 17.9 1.4 27 1.5 10.4 0.1 20.7-0.4 28-1.4 6.3-0.9 16.7-2.7 23-4.1 6.3-1.3 15.8-3.9 21-5.6 5.2-1.7 16.7-6.5 25.5-10.7 8.8-4.3 20.3-10.4 25.5-13.6 5.2-3.3 14-9.5 19.5-13.9 5.5-4.4 15.2-13.2 21.5-19.6 6.3-6.4 14.4-15.4 18-19.9 3.6-4.6 9.1-12.4 12.3-17.4 3.2-5.1 8.9-15.5 12.7-23.2 3.8-7.7 8.9-20.1 11.4-27.5 2.5-7.4 5.7-19.4 7.1-26.5 1.6-7.8 3-19.2 3.5-28.5 0.5-8.5 0.8-15.6 0.7-15.8-0.1-0.1-3.2 3.9-6.9 9-3.7 5.1-9.6 12.9-13.2 17.3-3.5 4.4-10.4 12.3-15.2 17.6-4.9 5.3-12.8 13.3-17.7 17.8-4.8 4.4-13.1 11.6-18.5 15.9-5.3 4.3-14.2 10.7-19.7 14.3-5.5 3.7-14.1 8.9-19 11.7-4.9 2.8-12.6 6.7-17 8.7-4.4 2.1-12.1 5.3-17 7.2-4.9 1.9-14.4 5-21 6.8-6.6 1.9-17.4 4.4-24 5.5-6.6 1.1-18.3 2.4-26 2.8-7.7 0.4-20.1 0.4-27.5 0.1-7.4-0.4-18-1.5-23.5-2.4-5.5-0.9-14.5-2.7-20-4.1-5.5-1.4-12.3-3.2-15-4l-5-1.6 43-42.6c11.2 3.7 18.9 5.3 24.2 5.9 7 0.8 12.4 0.8 18.8 0 4.9-0.6 12.1-2 16-3.2 3.9-1.2 9.7-3.5 13-5.1 3.3-1.7 8-4.4 10.5-6.1 2.5-1.7 7.4-5.8 10.9-9.1 3.5-3.4 8.3-8.6 10.6-11.6 2.4-3 6.2-9.3 8.5-14 2.3-4.7 5.1-11.9 6.2-16 1.1-4.1 2.2-12 2.5-17.5 0.3-5.7 0-13.3-0.6-17.5-0.6-4.1-2.2-10.5-3.4-14.3l-2.2-6.7c44.9-45 58.4-58 59-58 0.5 0 5.1 3 10 6.7 4.9 3.6 13.1 10.1 18 14.3 4.9 4.3 14.2 13.1 20.5 19.6 6.3 6.6 15.3 16.6 19.9 22.4 4.6 5.8 10.8 14 13.8 18.2 2.9 4.3 5.6 7.8 6 7.8 0.5 0 0.5-6.2 0.1-13.7-0.3-7.6-1.6-18.8-2.8-24.8-1.2-6.1-3.7-16.1-5.6-22.3-1.9-6.1-5-15.1-7-20-2-4.8-5.9-13.2-8.7-18.7-2.9-5.5-9.1-15.9-13.9-23-4.7-7.2-11-15.6-14-18.8l-5.3-5.8z"/>
		<path id="Path 2" class="s2" d="m241.8 244l-164.6 164.5 24.3 24.5 329.5-329.5-24.5-24.1zm-3.9-124.3c-1.9 0.2-8.6 1.1-15 2-6.3 0.8-17.3 3-24.5 4.9-7.1 1.8-18.6 5.4-25.5 8-6.8 2.6-18.5 7.8-26 11.5-7.4 3.8-19.5 10.9-27 15.7-7.4 4.9-18.6 13.1-25 18.3-6.3 5.2-16.9 14.8-23.5 21.4-6.6 6.7-15.6 16.3-19.9 21.6-4.4 5.2-11 13.6-14.7 18.7-3.8 5.1-6.9 9.7-6.9 10.3 0 0.5-0.4 1-1 1-0.5 0-1.2 0.6-1.5 1.5-0.2 0.8 3 6.3 7.7 12.7 4.5 6.2 10.9 14.6 14.2 18.8 3.3 4.1 13.3 14.7 22.1 23.6 8.8 8.9 21 20 27 24.7 6.1 4.8 12.1 9.2 13.3 9.9 2.2 1.2 3.7-0.1 32.3-28.7l29.9-30c-3.1-10.9-4.3-18.5-4.6-24-0.4-5.8-0.2-13.4 0.5-18 0.6-4.4 2.2-11.2 3.5-15 1.3-3.9 3.6-9.5 5.1-12.5 1.5-3.1 4.9-8.5 7.6-12 2.6-3.6 7.6-9.2 11.1-12.4 3.5-3.3 8.1-7.2 10.3-8.7 2.2-1.5 7.9-4.6 12.5-6.8 4.7-2.2 11.5-4.9 15-5.9 4.9-1.3 10.3-1.7 21.5-1.7 11.8 0 16.7 0.4 22.8 2l7.8 2c32.5-32.6 41.6-42.3 41.2-42.7-0.4-0.4-6.4-2-13.3-3.7-6.8-1.7-17-3.8-22.5-4.7-5.9-0.9-18.3-1.7-30.5-1.9-11.2-0.2-22-0.2-24 0.1zm129.5 73.4l-29 28.9c3.5 10.5 5 16.9 5.6 21.1 0.7 4.2 1 11.8 0.6 17.5-0.3 5.5-1.4 13.3-2.5 17.5-1 4.1-3.8 11.3-6.1 16-2.4 4.6-6.2 10.9-8.5 14-2.4 3-7.2 8.2-10.7 11.5-3.5 3.4-8.4 7.5-10.9 9.1-2.4 1.7-7.2 4.5-10.5 6.1-3.3 1.7-9.1 4-13 5.2-3.8 1.2-11 2.6-16 3.2-6.3 0.7-11.8 0.7-18.7 0-5.4-0.6-13-2.2-17-3.5l-7.3-2.4-43 42.6c7.8 2.4 14.5 4.2 20 5.6 5.5 1.3 14.5 3.2 20 4.1 5.5 0.9 16.1 2 23.5 2.3 7.5 0.4 19.8 0.4 27.5 0 7.7-0.4 19.4-1.7 26-2.8 6.6-1.2 17.4-3.6 24-5.5 6.6-1.9 16.1-4.9 21-6.9 5-1.9 12.6-5.1 17-7.1 4.4-2 12.1-5.9 17-8.7 5-2.8 13.5-8.1 19-11.7 5.5-3.6 15.4-10.9 22-16.2 6.6-5.3 16.8-14.4 22.5-20.1 5.8-5.7 14.4-14.9 19.1-20.4 4.7-5.4 10.6-12.6 13.1-15.9 2.5-3.3 6.9-9.3 9.7-13.3 2.8-4 5.1-7.9 5.1-8.7 0-0.9-0.4-1.5-1-1.5-0.5 0-3.4-3.5-6.3-7.8-2.9-4.2-9.1-12.5-13.7-18.2-4.7-5.8-13.6-15.9-20-22.4-6.3-6.5-15.5-15.3-20.5-19.6-4.9-4.2-13-10.7-18-14.4-4.9-3.6-9.4-6.6-10-6.6-0.5 0-14 13-30 29z"/>
		<path id="Path 3" class="s3" d="m248 29.7c3.6 0.2 9 0.2 12 0 3-0.2 0.1-0.3-6.5-0.3-6.6 0-9.1 0.1-5.5 0.3z"/>
		<path id="Path 4" class="s4" d="m254.5 118.7c2.8 0.2 6.8 0.2 9 0 2.2-0.2-0.1-0.3-5-0.3-4.9 0-6.8 0.1-4 0.3z"/>
	</g>
</svg>