<svg version="1.2" xmlns="http://www.w3.org/2000/svg" viewBox="0 0 512 512" width="512" height="512">
	<title>m-lower-svg</title>
	<style>
		.s0 { fill: #cd59f7 } 
		.s1 { opacity: .7;fill: #cd59f7 } 
		.s2 { fill: #000000 } 
		.s3 { fill: #9340b1 } 
		.s4 { fill: #2f1439 } 
	</style>
	<g id="m">
		<path id="Path 0" class="s0" d="m259.2 10.6c12.8 0.1 27.1 0.7 31.8 1.3 4.7 0.7 13.7 2.3 20 3.7 6.3 1.3 15.3 3.5 20 4.9 4.7 1.3 13.9 4.7 20.5 7.5 6.6 2.8 16.5 7.5 22 10.4 5.5 2.9 14.7 8.3 20.5 12.1 5.8 3.7 15 10.4 20.5 14.9 5.5 4.5 13.1 11 16.9 14.6 3.8 3.6 10.3 10.5 14.5 15.5 4.1 5 10.5 13 14 18 3.6 5 8.5 12.4 10.9 16.5 2.5 4.1 7.1 12.7 10.3 19 3.2 6.3 7.3 15.6 9.3 20.5 1.9 4.9 4.8 14.2 6.5 20.5 1.7 6.3 4.3 18.7 5.8 27.5 2.5 14.4 2.8 18.4 2.8 39 0 17.3-0.5 25.9-1.8 34.5-1 6.3-2.5 14.6-3.3 18.5-0.9 3.9-3.2 12.4-5.1 19-1.9 6.6-5.8 17.2-8.5 23.5-2.7 6.3-7.6 16.4-11 22.5-3.3 6.1-8.4 14.6-11.4 19-2.9 4.4-7.8 11.1-10.9 15-3.1 3.9-9.1 10.8-13.3 15.4-4.2 4.7-12 12.3-17.2 16.9-5.2 4.6-14.4 12.1-20.5 16.6-6.1 4.5-12.6 9.1-14.5 10.3-1.9 1.2-10.9 5.8-20 10.4-9.1 4.5-19.4 9.3-23 10.6-3.6 1.4-11.2 3.8-17 5.4-5.8 1.6-19.5 4.5-30.5 6.4-18.1 3.2-21.8 3.5-39.2 3.5-16.9 0-21.6-0.4-37.5-3.1-10.1-1.6-21.9-3.9-26.3-5.1-4.4-1.1-11.6-3.1-16-4.5-4.4-1.4-14.5-5.6-22.5-9.3-8-3.8-18.2-8.9-22.7-11.4-4.6-2.5-13.6-8.5-20-13.4-6.5-4.8-16-12.6-21.3-17.3-5.2-4.7-13.9-13.4-19.3-19.5-5.4-6-12.9-15.2-16.7-20.4-3.7-5.2-9.9-14.9-13.6-21.5-3.8-6.6-9.1-16.9-11.8-23-2.7-6.1-6.6-16.3-8.7-22.8-2.2-6.4-5.2-18.3-6.9-26.4-1.6-8.2-3.4-19.3-4-24.8-0.5-5.5-1-17.6-1-27 0-14.1 0.5-20 2.9-34.5 1.6-9.6 3.9-21.3 5.1-26 1.1-4.7 3.3-12.1 4.7-16.5 1.4-4.4 5.3-13.8 8.5-21 3.3-7.2 9.1-18.4 13.1-25 3.9-6.6 11.2-17.4 16.1-24 5-6.6 14.2-17.2 20.6-23.6 6.3-6.3 15.8-14.9 21-19.1 5.2-4.1 14-10.5 19.5-14.1 5.5-3.6 15.2-9.2 21.5-12.6 6.3-3.3 16.4-8.1 22.5-10.6 6.1-2.5 15.5-5.9 21-7.5 5.5-1.5 13.6-3.6 18-4.5 4.4-0.9 13.2-2.3 19.5-3.1 6.3-0.8 11.6-1.6 11.7-1.7 0.1-0.2 10.7-0.2 23.5-0.1z"/>
		<path id="Path 1" class="s1" d="m249 10.3c4.1 0 5.7 0.2 3.5 0.4-2.2 0.2-5.6 0.2-7.5 0-1.9-0.2-0.1-0.4 4-0.4z"/>
		<path id="Path 2" class="s2" d="m258.8 29.7c9.7 0.1 22 0.6 27.2 1.2 5.2 0.6 14 1.9 19.5 3 5.5 1.1 15.2 3.7 21.5 5.7 6.3 2 15.9 5.6 21.2 8 5.4 2.4 14 6.7 19 9.5 5.1 2.8 13.8 8.1 19.3 11.7 5.5 3.7 15.6 11.6 22.4 17.7 6.8 6 16.4 15.5 21.3 21 4.9 5.5 12.7 15.6 17.3 22.5 4.6 6.9 10.8 17.2 13.9 23 3 5.8 7.3 15 9.5 20.5 2.2 5.5 5.5 15.4 7.4 22 1.9 6.6 4.2 16.3 5.2 21.5 0.9 5.2 2 16.7 2.5 25.5 0.5 9.4 0.4 22.4-0.1 31.5-0.5 9-2 20.8-3.5 28-1.4 6.9-4.5 18.6-7 26-2.5 7.4-7.6 19.8-11.4 27.5-3.8 7.7-9.5 18.1-12.7 23.2-3.2 5-8.7 12.8-12.3 17.4-3.6 4.5-11.7 13.5-18 19.9-6.3 6.4-16 15.2-21.5 19.6-5.5 4.4-14.3 10.6-19.5 13.9-5.2 3.2-16.7 9.3-25.5 13.6-8.8 4.2-20.3 9-25.5 10.7-5.2 1.7-14.7 4.3-21 5.6-6.3 1.4-16.7 3.2-23 4.1-7.3 1-17.6 1.5-28 1.4-9.1-0.1-21.2-0.8-27-1.5-5.8-0.8-15.9-2.6-22.5-4-6.6-1.5-12.3-2.8-12.8-3-0.4-0.2 1.7-3 4.5-6.3 2.9-3.2 6.7-8.5 8.5-11.7 1.7-3.2 3.9-8.8 4.8-12.4 0.9-3.6 1.6-9.9 1.6-14 0-4.1-0.7-10.4-1.6-14-0.9-3.6-3-9-4.6-12-1.6-3-5.1-8-7.7-11-2.7-3-7.7-7.1-17.1-12.5l-0.1-159c0-98.3-0.4-161.6-1-165.8-0.6-3.7-1.7-8.2-2.6-9.9-1.3-2.7-1.3-3.5-0.2-4.5 0.7-0.6 6.5-2.7 12.8-4.6 6.3-1.9 15.6-4.3 20.5-5.2 4.9-0.9 13.4-2.2 18.8-2.8 5.4-0.7 17.7-1.1 27.5-1zm-122.3 35.2l0.5 22.1h23v18h-23v14h7v18h-7v14h23v18h-23v14h7v18h-7v14h23v18h-23v14h7v18h-7v14h23v18h-23v14h7v18h-7v14h14v-23h18v82l3.2 0.9c1.8 0.6 5.5 3 8.3 5.4 2.8 2.4 6.1 6.6 7.4 9.3 1.3 2.7 2.6 6.9 3 9.4 0.4 2.5 0.3 6.9-0.1 9.8-0.4 2.8-1.9 7.3-3.2 10-1.3 2.6-3.9 6.2-5.7 8.1-1.9 1.8-5.2 4.1-7.4 5.1-2.2 1-5.6 2.1-7.5 2.5-2.7 0.6-4.8 0.2-9.5-1.9-3.3-1.5-10-5.1-15-7.9-4.9-2.9-9.5-5.8-10.2-6.4-0.7-0.7-1.8-3.2-2.4-5.5-0.6-2.4-1.1-6.8-1-9.8 0-3 0.8-7.7 1.7-10.5 1.2-3.4 3.5-6.8 7.3-10.6 3.3-3.3 7.1-6 13.1-7.9v-41h-14l-0.1 20.5-7.1 4.5c-3.9 2.5-9 6.8-11.3 9.5-2.3 2.8-5.5 7.3-7.1 10-1.6 2.8-3.8 8.3-6.9 19.6l-9.5-9.8c-5.3-5.4-12.5-13.4-15.9-17.8-3.5-4.4-8.5-11.1-11.1-15-2.6-3.9-7.4-11.9-10.7-18-3.3-6-8.1-16.2-10.6-22.5-2.5-6.3-6.2-16.9-8.1-23.5-1.9-6.6-4.3-17.6-5.5-24.5-1.1-6.9-2.5-18.1-3.1-25-0.6-8.3-0.6-16.5 0.1-24.5 0.5-6.6 1.9-17.6 3-24.5 1.2-6.9 3.6-17.9 5.5-24.5 1.9-6.6 5.5-17.2 8-23.5 2.5-6.3 7.7-17.1 11.5-24 3.9-6.9 9.9-16.6 13.4-21.5 3.5-4.9 10.6-13.7 15.8-19.5 5.1-5.8 14.2-14.9 20.2-20.4 6.1-5.4 15-12.5 20-15.8z"/>
		<path id="Path 3" class="s3" d="m253.5 29.4c6.6 0 9.5 0.1 6.5 0.3-3 0.2-8.4 0.2-12 0-3.6-0.2-1.1-0.3 5.5-0.3z"/>
		<path id="Path 4" class="s0" d="m247 53h18v67l68-34 7.8 15.5-75.8 38v51.5l13.3 26.5 30.2-1.7 21.5-12.5c11.8-6.8 21.8-12.8 22.1-13.1 0.4-0.4-0.4-17.8-1.7-38.7-1.3-20.9-2.3-39.8-2.4-46l8.2-0.7c4.6-0.3 8.4-0.6 8.4-0.5 0.1 0.1 1.1 16.9 2.3 37.2 1.3 20.3 2.5 37.3 2.9 37.7 0.4 0.4 13.5-6.7 29.2-15.7 15.7-9.1 28.5-16.4 28.6-16.3 0.1 0.2 1.9 3.5 4.2 7.3 3.1 5.3 3.8 7.3 2.9 8.1-0.7 0.6-12.9 7.8-27.2 15.9-14.3 8.2-26.7 15.4-27.5 16.1-1.3 1.1 3.3 4.4 62 42.9l-9.5 14.6-20-13.2c-11-7.3-27-17.8-51-33.7l-43.9 25.3-17.1 25.5 17.1 25.5 43.9 25.3 15.5-10.2c8.5-5.7 24.5-16.2 55.5-36.7l9.5 14.6-31.8 20.9c-29.7 19.5-31.6 20.9-29.7 22.3 1.1 0.7 13.5 8 27.5 16 14 8 26 15.1 26.7 15.7 0.9 0.8 0.2 2.8-2.9 8.1-2.3 3.9-4.1 7.1-4.2 7.3-0.1 0.1-12.9-7.2-28.6-16.3-15.7-9-28.8-16.1-29.2-15.7-0.4 0.4-1.6 17.3-2.9 37.7-1.2 20.4-2.2 37.1-2.3 37.2 0 0.1-3.8-0.2-16.6-1.2v-4c0.1-2.2 1.1-21.1 2.4-42 1.3-20.9 2.1-38.3 1.7-38.7-0.3-0.3-10.3-6.3-43.6-25.6l-30.2-1.7-13.3 26.5v51.5l75.7 38-7.7 15.5-68-34v67h-18v-67l-20 10-3-5.2c-1.7-2.9-3.7-6.2-4.5-7.3-1.3-1.9-0.7-2.3 27.5-17v-51.5l-13.3-26.5-15.1 0.9c-8.3 0.4-15.7 1-16.4 1.2-0.9 0.3-1.2-2.6-1.2-25.1l10.5-15.5-10.5-15.5v-12.7c0-9.8 0.3-12.7 1.2-12.4 0.7 0.2 8.1 0.8 31.5 2.1l13.3-26.5v-51.5l-45.5-23-0.5-19.5 46 23v-33.5zm-162.5 94c0 0 7.7 4.4 34 19.6l0.2 9.7c0.3 8.8 0.1 9.7-1.5 9.1-0.9-0.3-10-5.3-20.2-11.1-10.2-5.8-19-11.1-19.7-11.7-0.8-0.8-0.1-2.9 3-8.3 2.3-4 4.2-7.3 4.2-7.3zm33.7 59.1c0.5-0.1 0.8 4.4 0.8 19.9l-39.5 26.1-9.5-14.6 23.8-15.7c13-8.6 24-15.7 24.4-15.7zm-36.8 55.2c1.2 0.5 10.1 6.4 37.6 24.7v10c0 5.5-0.2 10-0.5 10-0.3 0-11.3-7.1-48.4-31.5l4.6-7.2c4.2-6.5 4.8-7 6.7-6zm36.9 64.7c0.4 0 0.6 4.4 0.2 19.4l-17 9.8c-9.4 5.4-17 9.7-17.1 9.6-0.1-0.2-1.9-3.4-4.2-7.3-2.2-3.9-3.7-7.3-3.4-7.7 0.4-0.4 9.7-6 20.7-12.3 11-6.3 20.3-11.5 20.8-11.5zm41.7 83c0.8 0-1.4 2.2-4.8 5-3.4 2.7-8.5 7.9-11.2 11.5-2.8 3.6-5.2 6.5-5.5 6.5-0.3 0-0.2-1.7 0.1-3.8 0.3-2 1.4-5.3 2.4-7.2 1-1.9 3-4.6 4.5-6 1.5-1.4 5-3.3 7.9-4.2 2.8-1 5.8-1.7 6.6-1.8z"/>
		<path id="Path 5" class="s4" d="m256 52.4c5.2 0 7.3 0.1 4.5 0.3-2.8 0.2-7 0.2-9.5 0-2.5-0.2-0.2-0.3 5-0.3zm0 407c5.2 0 7.3 0.1 4.5 0.3-2.8 0.2-7 0.2-9.5 0-2.5-0.2-0.2-0.3 5-0.3z"/>
	</g>
</svg>