<svg style="height: 512px; width: 512px;" xmlns="http://www.w3.org/2000/svg" viewBox="0 0 512 512"><defs><clipPath id="icon-bg"><circle cx="256" cy="256" r="236" fill="#000" fill-opacity="1" stroke="#cd59f7" stroke-opacity="1" stroke-width="20" transform="translate(-51.2, -51.2) scale(1.2, 1.2) rotate(0, 256, 256) skewX(0) skewY(0)"></circle></clipPath></defs><circle cx="256" cy="256" r="236" fill="#000" fill-opacity="1" stroke="#cd59f7" stroke-opacity="1" stroke-width="20"></circle><g class="" style="" transform="translate(0,-35)"><path d="M256 33.78C205.2 119.6 154.2 177 103.7 228.7c101.3-39.2 203.3-39.2 304.6 0C357.8 177 306.8 119.6 256 33.78zm0 183.02c-10.4 0-20.8.5-31.3 1.4 6.5 104.2-48.4 216.9-158.29 268.8H445.6c-109.9-51.9-164.8-164.6-158.3-268.8-10.5-.9-20.9-1.4-31.3-1.4z" fill="#cd59f7" fill-opacity="1" clip-path="url(#icon-bg)" transform="translate(51.2, 51.2) scale(0.8, 0.8) rotate(0, 256, 256) skewX(0) skewY(0)"></path></g></svg>