<svg style="height: 512px; width: 512px;" xmlns="http://www.w3.org/2000/svg" viewBox="0 0 512 512" width="512" height="512"><path cx="256" cy="256" r="241" fill="#000000" fill-opacity="1" stroke="#cd59f7" stroke-opacity="1" stroke-width="15" d="M497 256A241 241 0 0 1 256 497A241 241 0 0 1 15 256A241 241 0 0 1 497 256z"/><g class="" style="" transform="translate(-1 -14)"><path d="M257.125 64.95c-20.488 0 -36.976 16.576 -36.976 37.275 0 20.7 16.488 37.276 36.976 37.276s37 -16.576 37 -37.275c0 -20.698 -16.512 -37.275 -37 -37.275zm98.224 30.35L292.7 142.2c2.132 4.62 3.82 9.62 5 14.925l55.2 -41.325 2.45 -20.5zm-204.274 1.024 7.1 21.926 51.349 31.5c2.01 -4.754 4.411 -9.17 7.15 -13.176l-65.6 -40.25zm218.901 2.452L367.5 119.8l33.15 42.1a36.602 36.602 0 0 1 13.05 -7.576l-43.724 -55.548zm-233.552 0.8 -41.374 64a36.169 36.169 0 0 1 13.825 6.124l33.475 -51.776 -5.925 -18.349zm89.552 44.4c-5.696 8.642 -9.828 19.928 -11.126 32.549 -1.6 15.55 1.428 29.971 7.25 40.45 5.822 10.479 14.06 16.799 23.424 17.775 9.366 0.976 18.724 -3.498 26.552 -12.55 7.826 -9.054 13.725 -22.575 15.324 -38.126 1.392 -13.538 -0.712 -26.23 -5.125 -36.2a51.296 51.296 0 0 1 -25.15 6.576c-11.672 0 -22.467 -3.899 -31.15 -10.476zm199 23.5c-11.958 0 -21.5 9.543 -21.5 21.5s9.543 21.498 21.5 21.498 21.473 -9.544 21.473 -21.5c0 -11.957 -9.518 -21.5 -21.475 -21.5zm-337.328 10.3c-11.957 0 -21.5 9.517 -21.5 21.474s9.543 21.5 21.5 21.5c11.958 0 21.475 -9.544 21.475 -21.5 0 -11.957 -9.517 -21.475 -21.475 -21.475zM221.2 235.224c-8.016 5.856 -13.062 13.984 -13.224 22.026 -0.148 7.248 3.16 13.396 9.324 18.1 6.164 4.704 15.211 7.608 25.624 7 20.829 -1.216 36.982 -16.006 37.276 -30.5 0.118 -5.842 -2.018 -10.968 -6.075 -15.2 -8.629 7.08 -18.97 11.006 -29.824 9.875 -8.864 -0.923 -16.707 -5.075 -23.101 -11.3zm55.925 50c-7.325 5.576 -16.373 9.528 -26.176 11.226l38.226 64.9 12.7 -10.9 -24.751 -65.225zm-65.35 4.451L204.1 363.1l14.824 10.676 19.626 -76.4c-9.994 -0.264 -19.208 -2.989 -26.775 -7.7zm100.1 71.875 -12.577 10.8 52.176 40.824c1.996 -7.786 6.525 -14.814 12.925 -19.824l-52.525 -31.8zm-113.977 15.5 -44.724 23.8c3.947 4.93 6.684 10.928 7.624 17.6 0.072 0.519 0.125 1.032 0.176 1.55l51.648 -32.325 -14.724 -10.624zm188.726 23.55a21.716 21.716 0 0 0 -6.149 0.95c-11.432 3.508 -17.757 15.419 -14.25 26.85 3.508 11.432 15.42 17.758 26.851 14.25 11.432 -3.508 17.757 -15.419 14.25 -26.85 -2.877 -9.376 -11.415 -15.306 -20.7 -15.2zm-261.6 1.424c-1.084 -0.01 -2.189 0.07 -3.3 0.226 -11.84 1.668 -19.942 12.435 -18.274 24.275 1.668 11.84 12.435 19.942 24.275 18.275 11.84 -1.667 19.942 -12.435 18.275 -24.275 -1.46 -10.36 -9.884 -17.853 -19.9 -18.45 -0.358 -0.021 -0.714 -0.046 -1.075 -0.05z" fill="#cd59f7" fill-opacity="1"/></g></svg>