<svg style="height:512px;width:512px" xmlns="http://www.w3.org/2000/svg" viewBox="0 0 512 512" width="512" height="512"><circle cx="256" cy="256" r="236" stroke="#cd59f7" stroke-width="20"/><path d="M181.75 68.776c-5.837 21.589-8.162 42.414-6.35 62.749-11.88 5.828-20.725 16.091-20.65 29.95.226 42.12 11.443 62.536 22.2 82.624 10.838 20.243-11.064 32.463-20.65 9.301-7.387-17.851-12.02-33.563-26.35-54.224-7.268-10.482-18.164-13.944-28.9-12.6-9.552-14.552-17.523-28.949-24.15-45.026-6.096 23.55-6.52 42.578-.7 57.725-8.28 8.663-12.488 20.764-7.7 33.475 10.13 26.886 31.824 50.09 44.925 61.45 25.2 21.85 39.136 46.091 47.752 75.024L148.95 406.4l18.499-9.9-12.55 37.65 13.925-8.35c-1.171 8.536-3.886 15.828-7.874 23.325h176.075c-5.438-9.104-10.872-17.168-13.924-25.875l14.875 10.9-10.226-46.575 12.225 13.549.474-38.525c13.978-19.436 32.36-37.07 47.176-49.3 3.21-2.65 6.63-5.078 9.824-7.75 13.325-11.143 27.412-27.858 40.275-52.15 6.376-12.037 3.344-23.918-4.35-33.024 5.484-16.57 8.2-32.582 8.15-49.1l-31.225 34.423c-13.555-3.941-28.528-1.862-38.15 10-12.532 15.45-16.731 29.208-26.35 41.826-11.502 15.086-24.669 5.432-17.551-7.75 11.236-20.808 23.27-46.318 25.3-87.276.827-16.688-9.934-28.242-24.325-34 1.264-18.52-5.921-39.87-12.973-59.45-4.384 17.067-10.707 37.104-17.126 55.776-15.712 2.05-29.704 10.357-33.875 26.325-9.539 36.517-5.26 63.885-4.65 82.624.799 24.517-26.155 18.624-24.776 0 1.944-26.224 7.542-45.56-.524-83.15-3.097-14.432-14.904-22.099-28.55-24.074-5.216-20.332-14.616-38.675-25-57.775zm125.8 73.974c18.896.064 36.844 19.766 23.725 54.9-16.629 44.532-58.432 31.184-55.325-17.424 1.642-25.688 16.903-37.527 31.6-37.476m-114.176 3c14.31-.336 30.467 13.452 32.15 39.325 2.88 44.226-42.133 51.054-51.823 12.224-8.695-34.83 4.44-51.192 19.674-51.549zM103.4 204.275c7.844-.133 16.478 4.484 22.075 14.624 24.022 43.514-13.112 64.358-31.7 32.8-17.435-29.595-5.35-47.172 9.624-47.424zM399.9 222.2c17.416-.507 34.234 19.46 15.875 40.9-28.752 33.576-64.57 24.232-35.651-27.875 4.965-8.944 12.422-12.81 19.776-13.024zm-145.924 42.15c78.116 0 124.174 76.552 49.174 90.475-23.172 4.304-33.312-8.532-49.5-8.6-14.257 0-30.77 13.253-47.875 10.276-79.164-13.787-41.208-92.15 48.2-92.15z" fill="#cd59f7"/></svg>