<svg style="height: 512px; width: 512px;" xmlns="http://www.w3.org/2000/svg" viewBox="0 0 512 512" width="512" height="512"><path cx="256" cy="256" r="241" fill="#000000" fill-opacity="1" stroke="#cd59f7" stroke-opacity="1" stroke-width="15" d="M497 256A241 241 0 0 1 256 497A241 241 0 0 1 15 256A241 241 0 0 1 497 256z"/><g class="" style="" transform="translate(-1 -14)"><path d="M256 66.65c-35.523 0 -68.078 20.348 -92.198 54.5 -24.122 34.152 -39.327 81.928 -39.327 134.85S139.68 356.696 163.8 390.85c24.12 34.152 56.676 54.5 92.2 54.5 35.522 0 68.054 -20.348 92.176 -54.5 24.12 -34.152 39.349 -81.928 39.349 -134.85s-15.23 -100.696 -39.352 -134.85c-24.12 -34.152 -56.65 -54.5 -92.171 -54.5H256zm-54.438 157.06c17.598 0.061 34.868 7.544 45.988 26.19 -10.37 8.008 -20.886 14.372 -31.55 18.9a22.973 22.973 0 0 0 2.4 -10.275c0 -12.744 -10.331 -23.075 -23.077 -23.075s-23.072 10.33 -23.072 23.075c0 7.453 3.54 14.08 9.024 18.3 -0.75 0.029 -1.499 0.046 -2.248 0.054 -0.75 0.008 -1.499 0.006 -2.252 -0.005h-0.002c-12.763 -0.166 -25.733 -3.05 -38.974 -8.973 4.195 -23.784 34.434 -44.293 63.763 -44.19zm108.876 0c29.328 -0.103 59.568 20.408 63.762 44.19 -13.24 5.923 -26.211 8.808 -38.974 8.974h-0.001a84.3 84.3 0 0 1 -4.498 -0.049c5.483 -4.219 9.023 -10.846 9.023 -18.3 0 -12.743 -10.328 -23.075 -23.072 -23.075 -12.746 0 -23.077 10.33 -23.077 23.076 0 3.692 0.858 7.18 2.4 10.275 -10.664 -4.528 -21.18 -10.891 -31.55 -18.9 11.12 -18.648 28.39 -26.128 45.987 -26.19zm-90.54 67.168c7.061 -0.024 14.524 2.88 20.555 8.912L256 315.336l15.547 -15.547c6.03 -6.03 13.494 -8.935 20.555 -8.912 0.47 0.001 0.94 0.016 1.406 0.043 7.464 0.44 14.178 3.868 19.18 8.869 5 5.001 8.428 11.715 8.867 19.18 0.44 7.465 -2.436 15.528 -8.869 21.96l-15.547 15.549 15.547 15.546c6.432 6.432 9.307 14.496 8.868 21.96 -0.44 7.466 -3.868 14.18 -8.87 19.18 -5 5 -11.714 8.43 -19.18 8.869 -7.463 0.44 -15.527 -2.435 -21.96 -8.868L256 397.616l-15.547 15.548c-6.432 6.432 -14.496 9.308 -21.96 8.869 -7.466 -0.439 -14.18 -3.867 -19.18 -8.868 -5 -5 -8.429 -11.715 -8.868 -19.18 -0.44 -7.464 2.436 -15.528 8.869 -21.96l15.547 -15.547 -15.547 -15.55c-6.432 -6.431 -9.307 -14.494 -8.868 -21.96 0.44 -7.463 3.868 -14.177 8.87 -19.178 5 -5 11.714 -8.43 19.18 -8.87 0.466 -0.026 0.935 -0.04 1.406 -0.042zm0.755 14.4c-0.44 -0.015 -0.878 -0.008 -1.315 0.017 -3.5 0.205 -7.106 1.936 -9.844 4.675s-4.47 6.344 -4.676 9.844c-0.205 3.499 0.79 7.045 4.676 10.932l72.236 72.235c3.888 3.886 7.433 4.882 10.932 4.676 3.5 -0.206 7.106 -1.938 9.844 -4.676 2.739 -2.739 4.47 -6.344 4.676 -9.843 0.205 -3.499 -0.79 -7.046 -4.676 -10.932L230.27 309.97c-3.4 -3.4 -6.54 -4.587 -9.617 -4.692zm70.694 0c-3.077 0.106 -6.216 1.292 -9.617 4.692l-15.548 15.548 20.776 20.776 15.548 -15.547c3.887 -3.888 4.88 -7.433 4.676 -10.933 -0.207 -3.5 -1.936 -7.105 -4.676 -9.844 -2.738 -2.738 -6.344 -4.47 -9.844 -4.675a14.136 14.136 0 0 0 -1.315 -0.017zm-66.304 61.38 -15.55 15.548c-3.886 3.887 -4.88 7.434 -4.675 10.933 0.207 3.5 1.936 7.104 4.676 9.843 2.738 2.738 6.344 4.47 9.844 4.676 3.499 0.206 7.045 -0.79 10.932 -4.676l15.547 -15.548 -20.774 -20.776z" fill="#cd59f7" fill-opacity="1"/></g></svg>