<svg version="1.2" xmlns="http://www.w3.org/2000/svg" viewBox="0 0 512 512" width="512" height="512">
	<title>svg</title>
	<style>
		.s0 { fill: #000000 } 
		.s1 { opacity: .1;fill: #000000 } 
		.s2 { opacity: .2;fill: #000000 } 
		.s3 { fill: #cd59f7 } 
	</style>
	<g id="Back">
		<path id="Path 0" class="s0" d="m261 23.7c8 0.1 19 0.7 24.5 1.4c5.5 0.6 18.6 3.4 29 6.1c10.4 2.6 24.2 6.9 30.5 9.4c6.3 2.5 15.6 6.6 20.5 9.1c4.9 2.5 12.6 6.9 17 9.7c4.4 2.8 12.3 8.3 17.5 12.2c5.2 4 12.9 10.3 17 14c4.1 3.8 10.9 10.7 15 15.4c4.1 4.7 10.5 12.3 14.1 17c3.6 4.7 9.6 13.7 13.4 20c3.7 6.3 8.2 14.7 10 18.5c1.8 3.8 4.3 9.7 5.5 13c1.2 3.3 4 11.2 6.2 17.5c2.1 6.3 4.7 15.1 5.8 19.5c1 4.4 2.6 13.2 3.5 19.5c1 7.4 1.6 18.5 1.6 31c0 12.5-0.6 23.6-1.6 31c-0.9 6.3-2.5 15.1-3.5 19.5c-1 4.4-4.2 14.8-7 23c-2.9 8.3-7.9 20.5-11.1 27.3c-3.2 6.7-8.9 17-12.5 23c-3.6 5.9-8 12.3-9.8 14.2c-1.9 1.9-5 5.8-7 8.5c-2.1 2.8-8.8 10.1-14.9 16.4c-6.2 6.2-15 14.3-19.7 18c-4.7 3.6-9.3 7.4-10.2 8.4c-1 0.9-4.4 3.3-7.6 5.4c-3.1 2-7.7 4.8-10.2 6.3c-2.5 1.4-10.5 5.4-17.8 8.8c-7.2 3.4-16.2 7.3-20 8.7c-3.7 1.4-13.7 4.6-22.2 7c-10 2.8-20.1 5-28.5 6c-7.1 0.8-14.8 1.7-17 2c-2.2 0.3-8.3 0.5-13.5 0.5c-5.2 0-11.5-0.2-14-0.5c-2.5-0.3-10.1-1.3-17-2.1c-6.9-0.8-17.2-2.9-23-4.5c-5.8-1.7-13.9-4.1-18-5.4c-4.1-1.3-9.8-3.2-12.5-4.2c-2.8-0.9-12-5.2-20.5-9.4c-8.5-4.2-18.9-9.8-23-12.5c-4.1-2.7-8.2-5.5-9-6.4c-0.9-0.8-6.1-5.1-11.5-9.5c-5.5-4.4-13.8-11.8-18.3-16.5c-4.6-4.7-11.3-12.3-14.9-17c-3.7-4.7-7.9-9.9-9.4-11.5c-1.5-1.6-5.3-7.3-8.4-12.5c-3.2-5.2-8.4-14.9-11.5-21.5c-3.2-6.6-7.7-17.6-10-24.5c-2.2-6.9-5.6-18.6-7.4-26c-1.9-7.4-3.9-18-4.5-23.5c-0.6-5.5-1.4-11.8-1.6-14c-0.3-2.2-0.5-7.8-0.5-12.5c0-4.7 0.2-10.3 0.5-12.5c0.2-2.2 0.9-8.5 1.6-14c0.6-5.5 3-17.7 5.4-27c2.4-9.3 6.4-22.6 8.9-29.5c2.5-6.9 7.7-18.3 11.4-25.5c3.8-7.2 9-16.2 11.7-20c2.6-3.8 7.7-10.8 11.3-15.5c3.6-4.7 12.2-14.1 19.1-21c6.9-6.9 17.1-15.9 22.6-20c5.5-4.1 12.7-9.3 16-11.4c3.3-2.1 10.3-6.2 15.5-9c5.2-2.8 11.5-5.9 14-6.9c2.5-1 9.2-3.6 15-5.8c5.8-2.2 18.4-6 28-8.4c9.6-2.4 21.8-4.8 27-5.4c5.2-0.6 10.8-1.2 12.5-1.4c1.7-0.1 9.5-0.1 17.5 0z" />
		<path id="Path 1" class="s1" d="m258 23.4c5.8 0 8 0.1 5 0.3c-3 0.2-7.8 0.2-10.5 0c-2.8-0.2-0.3-0.3 5.5-0.3zm-235.3 230.1c0.2 2.2 0.2 5.6 0 7.5c-0.2 1.9-0.4 0.1-0.4-4c0-4.1 0.2-5.7 0.4-3.5z" />
		<path id="Path 2" class="s2" d="m492.7 252c0.2 2.5 0.2 6.8 0 9.5c-0.2 2.8-0.3 0.7-0.3-4.5c0-5.2 0.1-7.5 0.3-5zm-234.7 239.3c4.7 0 6.5 0.2 4 0.4c-2.5 0.2-6.3 0.2-8.5 0c-2.2-0.2-0.2-0.4 4.5-0.4z" />
	</g>
	<path id="Border" fill-rule="evenodd" class="s3" d="m258.5 10.4c12.1 0.2 25.5 1 31.5 1.9c5.8 0.8 14.1 2.3 18.5 3.2c4.4 0.9 11.6 2.5 16 3.6c4.4 1.1 12.5 3.6 18 5.6c5.5 2 17.4 7.2 26.5 11.7c11.2 5.5 21.3 11.5 31.5 18.6c8.2 5.8 20.7 15.8 27.7 22.3c7.1 6.4 12.8 12 12.8 12.4c0 0.5 3.2 4.4 7.1 8.8c3.9 4.4 11.5 14.5 16.7 22.5c5.4 8.1 12.8 21.1 16.8 29.5c3.9 8.2 8.5 18.8 10.2 23.5c1.6 4.7 4.4 14.1 6 21c1.7 6.9 3.8 17.9 4.7 24.5c0.9 6.6 2 13.3 2.6 15c0.5 1.7 0.9 11.9 0.9 22.7c0 10.9-0.4 20.6-0.9 21.5c-0.5 1-1.4 6.3-2 11.8c-0.6 5.5-2.3 15.2-3.7 21.5c-1.4 6.3-4.5 17.4-6.9 24.5c-2.4 7.2-7.8 20.2-12.3 29c-4.4 8.8-11.5 21.2-15.7 27.5c-4.3 6.3-9.9 14-12.4 17c-2.5 3-8.2 9.5-12.6 14.3c-4.4 4.9-12.4 12.7-17.8 17.5c-5.4 4.8-12.6 10.6-16 13c-3.4 2.3-7.1 5-8.2 6c-1.1 0.9-4 3-6.5 4.6c-2.5 1.6-11.9 6.7-21 11.4c-9.1 4.6-20.8 10-26 11.9c-5.2 1.9-15.6 5-23 6.8c-7.4 1.9-18.9 4.1-25.5 5c-6.6 0.9-13.4 2-15 2.6c-1.6 0.5-11.8 0.9-22.5 0.9c-10.7 0-20.8-0.4-22.5-0.9c-1.7-0.6-8.4-1.7-15-2.6c-6.6-0.9-18.1-3.1-25.5-5c-7.4-1.8-17.8-4.9-23-6.8c-5.2-1.9-16.9-7.3-26-11.9c-9.1-4.7-18.5-9.8-21-11.4c-2.5-1.6-5.4-3.7-6.5-4.6c-1.1-1-4.8-3.7-8.2-6c-3.4-2.4-10.6-8.2-16-13c-5.4-4.8-13.4-12.6-17.8-17.5c-4.4-4.8-10.1-11.3-12.6-14.3c-2.5-3-8.1-10.7-12.4-17c-4.2-6.3-11.3-18.7-15.7-27.5c-4.5-8.8-9.9-21.8-12.3-29c-2.4-7.1-5.5-18.2-6.9-24.5c-1.4-6.3-3.3-16.4-4.2-22.5c-1-6.4-1.9-19.4-2.1-31c-0.2-11.4 0-21.5 0.6-23.5c0.5-1.9 1.7-8.9 2.6-15.5c0.9-6.6 3-17.6 4.7-24.5c1.6-6.9 4.4-16.3 6-21c1.7-4.7 6.3-15.3 10.2-23.5c4-8.4 11.4-21.4 16.8-29.5c5.2-8 12.8-18.1 16.7-22.5c3.9-4.4 7.1-8.3 7.1-8.8c0-0.4 5.7-6 12.8-12.5c7-6.4 19.5-16.4 27.7-22.2c10.2-7.1 20.3-13.1 31.5-18.6c9.1-4.5 21-9.7 26.5-11.7c5.5-2 13.6-4.5 18-5.6c4.4-1.1 12.5-2.9 18-4c5.5-1.1 13.4-2.3 17.5-2.6c4.1-0.4 8.2-1.1 9-1.6c0.8-0.5 10.9-0.7 22.5-0.5zm-31.5 21.2c-6.9 0.9-18.6 3.2-26 5c-7.4 1.9-18.7 5.5-25 8c-6.3 2.5-16.9 7.4-23.5 10.8c-6.6 3.4-16.7 9.3-22.4 13.2c-5.8 3.8-14.3 10.2-19 14.3c-4.7 4.1-11.9 10.9-16 15c-4 4.2-10.9 11.9-15.3 17.1c-4.4 5.2-11.6 15.3-16.1 22.5c-4.4 7.2-10.2 17.7-12.9 23.5c-2.7 5.8-6.9 16.3-9.3 23.5c-2.5 7.2-5.5 18.2-6.9 24.5c-1.3 6.3-2.9 16-3.6 21.5c-0.6 5.5-1.3 11.8-1.5 14c-0.3 2.2-0.5 7.8-0.5 12.5c0 4.7 0.2 10.3 0.5 12.5c0.2 2.2 0.9 8.5 1.5 14c0.7 5.5 2.3 15.2 3.6 21.5c1.4 6.3 4.4 17.4 6.9 24.5c2.4 7.1 6.6 17.7 9.3 23.5c2.7 5.8 8.5 16.4 12.9 23.5c4.5 7.1 11.7 17.3 16.1 22.5c4.4 5.2 11.3 12.9 15.3 17.1c4.1 4.1 11.3 10.9 16 15c4.7 4.1 13.2 10.5 19 14.3c5.7 3.9 15.8 9.8 22.4 13.2c6.6 3.4 17.2 8.3 23.5 10.8c6.3 2.5 16.9 5.9 23.5 7.6c6.6 1.7 16.1 3.7 21 4.5c4.9 0.8 13.3 1.9 18.5 2.5c5.2 0.5 13.8 1 19 1c5.2 0 13.8-0.5 19-1c5.2-0.6 13.6-1.7 18.5-2.5c4.9-0.8 14.4-2.8 21-4.5c6.6-1.7 17.2-5.1 23.5-7.6c6.3-2.5 16.9-7.4 23.5-10.8c6.6-3.4 16.3-9.1 21.5-12.5c5.2-3.5 13.1-9.4 17.5-13.1c4.4-3.7 11.4-10.1 15.6-14.1c4.1-4.1 10.6-11 14.5-15.4c3.8-4.4 9-10.9 11.5-14.5c2.6-3.6 7.5-11.2 10.9-17c3.5-5.8 8.3-14.8 10.7-20c2.4-5.2 6.4-15.4 8.8-22.5c2.4-7.1 5.4-17.3 6.5-22.5c1.2-5.2 2.8-14.2 3.6-20c0.9-6.4 1.5-18.1 1.5-30c0-11.9-0.6-23.6-1.5-30c-0.8-5.8-2.4-14.8-3.6-20c-1.1-5.2-3.8-14.7-5.9-21c-2.1-6.3-6.2-16.7-9-23c-2.9-6.3-8.5-16.9-12.6-23.5c-4-6.6-9.1-14.3-11.2-17.1c-2.1-2.8-7.9-9.7-12.8-15.3c-4.9-5.6-13.5-14.2-19-19c-5.5-4.9-11.4-10-13-11.3c-1.6-1.4-7.3-5.4-12.5-8.9c-5.2-3.4-14.9-9.1-21.5-12.5c-6.6-3.4-17.2-8.3-23.5-10.8c-6.3-2.5-17.6-6.1-25-8c-7.4-1.8-19.1-4.1-26-5c-6.9-1-19.2-1.8-27.5-1.9c-8.2-0.1-16.6-0.1-18.5 0.1c-1.9 0.1-9.1 0.9-16 1.8z" />
	<g id="2">
	</g>
	<g id="3">
	</g>
	<g id="4">
	</g>
	<g id="5">
	</g>
	<g id="m">
		<path id="boost" class="s3" d="m198.5 479.4c4.9 0 7.2 0.1 5 0.3c-2.2 0.2-6.3 0.2-9 0c-2.8-0.2-0.9-0.3 4-0.3zm116.5 0c5.8 0 8 0.1 5 0.3c-3 0.2-7.8 0.2-10.5 0c-2.8-0.2-0.3-0.3 5.5-0.3zm-58.7-435.4c0.6 0 1.2 1.5 1.5 3.3c0.2 1.7 4.1 17.8 8.6 35.7c4.6 17.9 10.6 42.2 13.6 54c2.9 11.8 5.8 22.1 6.4 22.7c0.9 1 3.1 0.1 10.1-4.1c4.9-3 13.5-9.2 19-13.9c5.5-4.6 14.1-12.6 19.1-17.8c5.1-5.2 12.7-13.7 17-18.9c4.4-5.2 11.5-14.5 15.9-20.7c5.1-7.2 8.3-10.8 8.7-10c0.4 0.7 0.8 10.1 0.8 20.9c0 15.4-0.5 22.5-2.1 32c-1.1 6.8-2.7 15-3.5 18.3c-0.9 3.3-3.6 10.9-6.1 17c-2.4 6.1-6.4 13.7-8.8 17c-2.3 3.3-5.2 6.9-6.4 8c-1.2 1.1-2.2 2.6-2.1 3.2c0 0.7 2.1 2.2 4.8 3.3c2.6 1.2 7.4 2.5 10.7 3.1c4.2 0.7 8.3 0.7 13.8 0c4.2-0.6 10.7-2.2 14.5-3.6c3.7-1.4 9.6-4.2 13.2-6.2c3.6-2 10.8-7.1 16-11.3c5.2-4.3 10.9-9.2 12.5-10.9c1.6-1.6 3.3-2.8 3.8-2.6c0.4 0.3 0.4 5.6 0.1 11.7c-0.3 6.2-1 14.7-1.5 18.8c-0.6 4.1-2.1 12.2-3.5 18c-1.7 6.8-4 13.3-6.8 18.5c-2.3 4.4-7.1 11.8-10.7 16.4c-3.5 4.7-8 9.6-10 11c-1.9 1.5-5.5 4.3-8 6.4c-2.7 2.3-4 4-3.4 4.6c0.6 0.4 3 1.6 5.5 2.6c3.5 1.4 7.3 1.8 17 1.8c12 0.1 12.8-0.1 19.5-3.2c3.9-1.8 9.4-5.1 12.4-7.4c3-2.3 7.5-6.7 10-9.8c2.5-3.1 5.7-7.2 9.3-12.4l-0.7 15c-0.4 10.4-1.4 18.1-3 25c-1.3 5.5-3.5 13.1-4.8 17c-1.4 3.9-4.5 11.7-6.9 17.5c-2.5 5.8-6.7 13.9-9.3 18c-2.6 4.1-8.2 11.7-20 26.2l2.5 1.8c1.4 1 4.1 2.3 6 2.9c1.9 0.6 5.5 1.1 8 1.1c2.5 0 7.2-0.7 10.5-1.5c3.3-0.9 9-3 12.7-4.8c3.7-1.8 6.9-2.8 7.1-2.2c0.2 0.6-1.4 4.6-3.6 9c-2.2 4.4-6.4 11.8-9.2 16.5c-2.9 4.7-9 13-13.5 18.5c-4.5 5.5-12.5 14.5-17.8 19.9c-5.3 5.5-14.9 14.2-21.2 19.5c-6.3 5.3-14.6 11.7-18.5 14.3c-3.9 2.6-13.5 7.8-21.5 11.6c-8 3.8-18.6 8.6-23.5 10.5c-4.9 2-10.4 3.7-12 3.8c-1.6 0.1-7.7 0.1-24-0.1l-7.5-29.2c-6.8-26.5-7.5-30.1-7.3-37.8c0.2-6.3 2.2-17.6 7.7-43c4.1-19 7.9-34.9 8.3-35.3c0.4-0.5 15-0.1 32.3 0.8c17.3 0.9 37.6 2 45 2.4c7.4 0.5 13.6 0.8 13.7 0.7c0.1-0.1-0.5-3-1.4-6.6c-0.8-3.6-3.3-12.6-5.5-20c-2.2-7.4-5.7-18.7-7.9-25c-2.2-6.3-4.7-14-5.5-17c-0.9-3-3.5-10.2-5.9-16c-2.4-5.8-6.3-14.1-8.7-18.4c-2.4-4.4-5.6-8.9-7.1-10c-2.2-1.6-4.3-2.1-9-2.1c-3.8 0.1-7.4 0.7-9.4 1.8c-1.8 0.9-4.5 3.4-6 5.4c-2.5 3.2-2.8 4.7-3.1 12.2c-0.3 7.3 0 9.1 1.8 11.8c1.1 1.8 3.9 4.7 6.3 6.3c3.5 2.6 5.1 3.1 10 3c3.1 0 5.9 0.4 6.2 1c0.3 0.6 1.5 9.8 2.8 20.5c1.5 13 1.9 19.8 1.2 20.5c-0.7 0.7-7.8-1.3-22.5-6.2c-11.8-4-24.4-8.2-28-9.5c-3.6-1.3-11-4.3-16.4-6.6c-5.4-2.3-10-4.8-10.2-5.5c-0.2-0.6 0.3-2.4 1.3-4c0.9-1.5 2.7-5.6 4.1-9.2c1.6-4.5 2.6-9.5 2.9-16c0.4-5.6 0.1-12.4-0.6-16.5c-0.7-3.9-2.9-10.6-5-15c-2.6-5.5-5.3-9.4-8.7-12.6c-2.8-2.6-6.6-5.1-8.9-5.8c-2.2-0.6-5.6-1.1-7.5-1.1c-1.9 0-5.5 0.6-8 1.5c-3 1-6.1 3.1-9.5 6.7c-2.8 3.1-6.3 8.3-8.1 12.3c-1.7 3.8-3.7 9.4-4.3 12.2c-0.6 2.9-1.1 9.2-1.1 14c0 4.9 0.6 11.3 1.4 14.3c0.8 3 2.7 8.2 4.2 11.5c1.5 3.3 2.9 6.3 3.1 6.7c0.2 0.5-1.4 1.7-3.4 2.7c-2.1 1-8.5 3.9-14.3 6.4c-5.8 2.4-19.3 7.5-30 11.2c-10.7 3.6-21.7 7.3-24.5 8.1c-2.7 0.8-5.3 1.1-5.6 0.7c-0.4-0.4 0.4-9.6 1.7-20.3c1.2-10.7 2.3-20.1 2.3-20.8c0.1-0.8 2.3-1.3 6.9-1.5c5.7-0.2 7.5-0.7 10.5-3c2-1.5 4.6-4.2 5.7-6c1.5-2.4 2-5 2-10.5c0-5.2-0.6-8.3-2-11.2c-1.1-2.2-3.2-4.9-4.7-6.1c-1.6-1.1-4.6-2.5-6.8-3.1c-2.2-0.5-5.7-0.7-7.7-0.4c-2.1 0.3-5 1.2-6.4 1.8c-1.7 0.9-4.3 4.6-7.8 11.3c-2.9 5.5-7.1 14.7-9.4 20.5c-2.3 5.8-7.7 21.5-12.1 35c-4.3 13.5-9.1 29.4-10.6 35.5c-1.5 6.1-2.5 11.1-2.3 11.1c0.2 0.1 6.1-0.2 13.3-0.7c7.2-0.4 27.4-1.5 45-2.4c17.6-0.9 32.3-1.3 32.8-0.8c0.4 0.4 3.9 15.7 7.7 33.8c3.8 18.1 7.5 36.6 9.2 49l-7.2 28c-4 15.4-7.5 29.4-8.6 34l-9.4 0.5c-8.1 0.5-10.6 0.2-17-1.8c-4.1-1.3-10.7-3.8-14.5-5.5c-3.8-1.7-13.1-6.2-20.5-10c-7.4-3.8-15.7-8.5-18.5-10.5c-2.7-1.9-9.9-7.7-16-12.7c-6-5.1-15.3-13.7-20.7-19.1c-5.3-5.4-13.6-14.8-18.5-20.9c-4.8-6.1-10.7-13.9-12.9-17.5c-2.3-3.6-5.7-9.6-7.7-13.5c-2-3.9-3.7-7.6-3.7-8.3c0-0.6 0.3-1.2 0.8-1.2c0.4 0 3.9 1.1 7.7 2.5c3.9 1.5 9.7 2.9 13 3.2c3.5 0.4 7.9 0.1 10.5-0.6c2.5-0.7 5.6-2 9.5-4.9l-7.6-9.3c-4.2-5.2-9.8-12.8-12.4-16.9c-2.6-4.1-6.8-12.2-9.3-18c-2.4-5.8-5.5-13.6-6.9-17.5c-1.3-3.9-3.3-10.6-4.4-15c-1.1-4.4-2.5-12.1-3-17c-0.6-4.9-1.3-13.1-2-27l4.2 6.5c2.3 3.6 7.2 9.4 10.8 13.1c4.6 4.5 9.1 7.8 23.6 15.1l13 0.1c10.9 0 13.8-0.3 18-2c2.8-1.2 5.1-2.5 5.2-2.9c0.1-0.5-3.4-3.8-7.9-7.4c-4.4-3.6-9.2-7.8-10.5-9.5c-1.3-1.7-4.5-5.7-6.9-9c-2.5-3.3-6.1-9.2-7.9-13c-1.9-3.8-4.4-10.6-5.5-15c-1.1-4.4-2.7-12.1-3.4-17c-0.8-4.9-1.7-14.3-2-20.8c-0.3-6.4-0.4-12.1-0.1-12.7c0.3-0.6 3.5 1.8 7.3 5.2c3.7 3.5 10.3 9 14.7 12.4c4.4 3.3 11.8 7.8 16.5 10.1c4.7 2.2 10.3 4.6 12.5 5.4c2.5 0.9 8.1 1.4 15 1.3c8.9 0 12.1-0.4 16.8-2.2c3.1-1.2 6-2.9 6.5-3.7c0.5-1.1-0.4-2.7-2.9-5.3c-2-2-5-5.7-6.6-8.2c-1.7-2.5-4.7-8.3-6.7-13c-2.1-4.7-4.9-12.3-6.2-17c-1.4-4.7-3.3-13.8-4.4-20.3c-1.6-9.1-2-16.4-2-33.2c0-12.3 0.4-21.4 0.9-21.3c0.5 0.2 4.6 5.5 9.1 11.8c4.6 6.3 11.7 15.5 15.8 20.5c4.1 5 11.6 13.2 16.6 18.4c5 5.2 13.6 13.2 19.1 17.8c5.5 4.6 13.9 10.9 18.8 13.9c4.8 2.9 9 5.4 9.5 5.4c0.4 0 3.3-10 6.4-22.2c3.1-12.3 9.8-38.6 14.9-58.6c5-19.9 9.6-36.2 10.2-36.2z" />
	</g>
</svg>